<svg width="14" height="14" viewBox="0 0 14 14" fill="none" xmlns="http://www.w3.org/2000/svg">
<path d="M8.15665 1.06282C8.15665 1.46889 8.47942 1.79166 8.88548 1.79166H10.8638L6.07425 6.58117C5.78792 6.8675 5.78792 7.33603 6.07425 7.62236C6.36058 7.90869 6.82912 7.90869 7.11545 7.62236L11.905 2.83286V4.81113C11.905 5.2172 12.2277 5.53997 12.6338 5.53997C13.0399 5.53997 13.3626 5.2172 13.3626 4.81113V1.07323C13.3626 0.667167 13.0347 0.33919 12.6286 0.33919L8.88548 0.333984C8.47942 0.333984 8.15665 0.656755 8.15665 1.06282Z" fill="black"/>
<path d="M5.96595 1.06731C5.96595 1.47232 5.63763 1.80064 5.23262 1.80064H2.82928C2.09291 1.80064 1.49596 2.39759 1.49596 3.13397V10.8673C1.49596 11.6036 2.09291 12.2006 2.82928 12.2006H10.5626C11.2989 12.2006 11.8959 11.6036 11.8959 10.8673V8.46392C11.8959 8.05892 12.2242 7.73059 12.6292 7.73059C13.0342 7.73059 13.3626 8.05892 13.3626 8.46392L13.3626 12.3339C13.3626 13.0703 12.7656 13.6672 12.0292 13.6672H1.36262C0.626247 13.6672 0.0292969 13.0703 0.0292969 12.3339V1.66731C0.0292969 0.930935 0.626247 0.333984 1.36262 0.333984H5.23262C5.63763 0.333984 5.96595 0.662307 5.96595 1.06731Z" fill="black"/>
</svg>
