<svg xmlns="http://www.w3.org/2000/svg" width="83" height="57" viewBox="0 0 83 57">
  <defs>
    <style>
      .cls-1 {
        fill: #fefefe;
      }

      .cls-1, .cls-2 {
        fill-rule: evenodd;
      }

      .cls-2 {
        fill: #c0342c;
      }
    </style>
  </defs>
  <path id="code" class="cls-1" d="M0.706,37.8H19.426V41.232H4.138V53.084H19.426V56.516H0.706ZM25.92,37.8H37.58A3.53,3.53,0,0,1,41.11,41.33V52.986A3.53,3.53,0,0,1,37.58,56.516H25.92A3.53,3.53,0,0,1,22.39,52.986V41.33A3.53,3.53,0,0,1,25.92,37.8ZM26.004,41.232H37.496A0.182,0.182,0,0,1,37.678,41.414V52.902A0.182,0.182,0,0,1,37.496,53.084H26.004A0.182,0.182,0,0,1,25.822,52.902V41.414A0.182,0.182,0,0,1,26.004,41.232ZM43.138,56.516h15.08a3.53,3.53,0,0,0,2.574-1.053A3.465,3.465,0,0,0,61.858,52.9V41.41a3.465,3.465,0,0,0-1.066-2.561A3.53,3.53,0,0,0,58.218,37.8H43.138v18.72Zm15.08-3.432H46.752A0.161,0.161,0,0,1,46.57,52.9V41.41a0.161,0.161,0,0,1,.182-0.182H58.218a0.161,0.161,0,0,1,.182.182V52.9a0.161,0.161,0,0,1-.182.182h0ZM63.86,37.8H82.58V41.232H67.292V45.442H82.58V48.874H67.292V53.084H82.58V56.516H63.86Z"/>
  <path id="I" class="cls-1" d="M20.758,30.516V1.716h-5.28v28.8h5.28Z"/>
  <path id="heart" class="cls-2" d="M61.138,0.609a10.32,10.32,0,0,0-5.861,1.76,12.114,12.114,0,0,0-3.429,3.583A12.118,12.118,0,0,0,48.42,2.369,10.321,10.321,0,0,0,42.559.609c-6,0-10.528,4.265-10.528,9.921,0,6.11,5.647,10.291,14.2,16.62,1.452,1.075,3.1,2.293,4.807,3.592a1.383,1.383,0,0,0,1.631,0c1.71-1.3,3.356-2.518,4.808-3.593C66.019,20.821,71.666,16.64,71.666,10.53,71.666,4.874,67.14.609,61.138,0.609Z"/>
</svg>
