<svg xmlns="http://www.w3.org/2000/svg" width="83" height="57" viewBox="0 0 83 57">
  <defs>
    <style>
      .cls-1 {
        fill: #fefefe;
      }

      .cls-1, .cls-2 {
        fill-rule: evenodd;
      }

      .cls-2 {
        fill: #c0342c;
      }
    </style>
  </defs>
  <path id="Data" class="cls-1" d="M0.706,56.516h15.08a3.53,3.53,0,0,0,2.574-1.053A3.465,3.465,0,0,0,19.426,52.9V41.41a3.465,3.465,0,0,0-1.066-2.561A3.53,3.53,0,0,0,15.786,37.8H0.706v18.72Zm15.08-3.432H4.32A0.161,0.161,0,0,1,4.138,52.9V41.41a0.161,0.161,0,0,1,.182-0.182H15.786a0.161,0.161,0,0,1,.182.182V52.9a0.161,0.161,0,0,1-.182.182h0Zm7.657-14.235A3.486,3.486,0,0,0,22.39,41.41V56.516h3.432V50.224h11.83v6.292H41.11V41.41a3.465,3.465,0,0,0-1.066-2.561A3.53,3.53,0,0,0,37.47,37.8H26A3.486,3.486,0,0,0,23.443,38.849Zm2.379,2.561A0.161,0.161,0,0,1,26,41.228H37.47a0.161,0.161,0,0,1,.182.182v5.382H25.822V41.41Zm17.316-.182h7.644V56.516H54.24V41.228h7.618V37.8H43.138v3.432Zm21.775-2.379A3.486,3.486,0,0,0,63.86,41.41V56.516h3.432V50.224h11.83v6.292H82.58V41.41a3.466,3.466,0,0,0-1.066-2.561A3.53,3.53,0,0,0,78.94,37.8H67.474A3.486,3.486,0,0,0,64.913,38.849Zm2.379,2.561a0.161,0.161,0,0,1,.182-0.182H78.94a0.161,0.161,0,0,1,.182.182v5.382H67.292V41.41Z"/>
  <path id="I" class="cls-1" d="M20.758,30.516V1.716h-5.28v28.8h5.28Z"/>
  <path id="heart" class="cls-2" d="M61.138,0.609a10.32,10.32,0,0,0-5.861,1.76,12.114,12.114,0,0,0-3.429,3.583A12.118,12.118,0,0,0,48.42,2.369,10.321,10.321,0,0,0,42.559.609c-6,0-10.528,4.265-10.528,9.921,0,6.11,5.647,10.291,14.2,16.62,1.452,1.075,3.1,2.293,4.807,3.592a1.383,1.383,0,0,0,1.631,0c1.71-1.3,3.356-2.518,4.808-3.593C66.019,20.821,71.666,16.64,71.666,10.53,71.666,4.874,67.14.609,61.138,0.609Z"/>
</svg>
